# xmcd
#
# Track frame offsets:
#	150
#	15685
#	28847
#	43357
#	58570
#	76380
#	92220
#	105250
#	124025
#	143592
#	164250
#	183520
#	200900
#	216752
#	232250
#
# Disc length: 3305 seconds
#
# Revision: 11
# Processed by: cddbd v1.5.2PL0 Copyright (c) Steve Scherf et al.
# Submitted via: audiograbber 1.80.04
#
DISCID=d50ce70f
DTITLE=Bob Marley and The Wailers - Natural Mystic
DYEAR=1995
DGENRE=Reggae
TTITLE0=Natural Mystic
TTITLE1=Easy Skanking
TTITLE2=Iron Lion Zion
TTITLE3=Crazy Baldheads
TTITLE4=So Much Trouble In The World
TTITLE5=War
TTITLE6=Africa Unite
TTITLE7=Trenchtown Rock (Live)
TTITLE8=Keep On Moving
TTITLE9=Sun Is Shinning
TTITLE10=Who The Cap Fit
TTITLE11=One Drop
TTITLE12=Roots, Rock, Reggae
TTITLE13=Pimpers Paradise
TTITLE14=Time Will Tell
EXTD=Dayvison DJ - Recife - PE\nRipado Por Dayvison Em 30 de Abril de 2011 Às 1
EXTD=7:50\ndayvisondj@hotmail.com
EXTT0=
EXTT1=
EXTT2=
EXTT3=
EXTT4=
EXTT5=
EXTT6=
EXTT7=
EXTT8=
EXTT9=
EXTT10=
EXTT11=
EXTT12=
EXTT13=
EXTT14=
PLAYORDER=
